<svg data-name="Icons / Dashboard Fuel / 18px" xmlns="http://www.w3.org/2000/svg" width="18" height="18" viewBox="0 0 18 18">
    <path data-name="Path 2941" d="M0 0h18v18H0z" style="fill:none"/>
    <path data-name="Path 2942" d="M9 2a7 7 0 1 1-7 7 7 7 0 0 1 7-7zm0 2.1a4.9 4.9 0 0 0-3.574 8.252l.109.112.99-.989a3.5 3.5 0 0 1 3.381-5.856L11 4.526A4.893 4.893 0 0 0 9 4.1zM13.474 7l-1.092 1.094a3.509 3.509 0 0 1-.906 3.382l.99.99A4.9 4.9 0 0 0 13.474 7zm-1.505-1.96L9.362 7.647a1.4 1.4 0 1 0 .991.991L12.96 6.03l-.99-.99z" style="fill:#376aed"/>
</svg>
