<svg id="Group_4744" data-name="Group 4744" xmlns="http://www.w3.org/2000/svg" width="20" height="20" viewBox="0 0 20 20">
  <path id="Path_2879" data-name="Path 2879" d="M0,0H20V20H0Z" fill="none"/>
  <path id="Union_69" data-name="Union 69" d="M4.524,14.318l1.313-1.2a7.451,7.451,0,0,0,3.192.711,7.519,7.519,0,0,0,7.323-5.857,7.507,7.507,0,0,0-1.51-3.1l1.237-1.131a9.261,9.261,0,0,1,1.98,4.221A9.168,9.168,0,0,1,4.524,14.318Zm-4.505-.26,1.994-1.826A9.219,9.219,0,0,1,0,7.967a9.169,9.169,0,0,1,13.579-6.32L15.375,0,16.5,1.229,1.142,15.289Zm4.328-10.3a7.544,7.544,0,0,0-2.64,4.209A7.6,7.6,0,0,0,3.249,11.1l2.2-2.008a3.812,3.812,0,0,1-.171-1.127,3.747,3.747,0,0,1,5.2-3.473l1.795-1.643a7.485,7.485,0,0,0-7.916.906ZM6.959,7.707l2-1.832A2.087,2.087,0,0,0,6.959,7.707Zm.681,3.762,1.548-1.414a2.08,2.08,0,0,0,1.9-1.738L12.634,6.9a3.775,3.775,0,0,1-3.6,4.836A3.708,3.708,0,0,1,7.64,11.469Z" transform="translate(0.972 2.033)" fill="#95989a"/>
</svg>
