<svg data-name="Icons / Syringe / Line / 18px" xmlns="http://www.w3.org/2000/svg" width="18" height="18">
    <path data-name="Path 2867" d="M0 0h18v18H0z" style="fill:none"/>
    <path data-name="Path 2868" d="m17.879 6.894-1.143 1.142-1.714-1.713-1.715 1.713 2.857 2.858-1.143 1.143-.571-.571-5.143 5.142H4.736l-1.714 1.714-1.143-1.143 1.714-1.714v-4.571l5.143-5.143-.571-.571 1.142-1.143 2.858 2.857 1.713-1.714-1.713-1.715 1.143-1.143 4.572 4.572zm-4.572 3.428L9.879 6.894 8.736 8.036l1.714 1.715-1.143 1.143L7.593 9.18l-1.142 1.142 1.713 1.714-1.142 1.143-1.715-1.714-.1.1v3.429h3.431z" transform="translate(-.879 -1.322)" style="fill:#95989a"/>
</svg>
