<svg data-name="Icons / Dashboard Fuel Line / 18px" xmlns="http://www.w3.org/2000/svg" width="18" height="18" viewBox="0 0 18 18">
    <path data-name="Path 2945" d="M0 0h18v18H0z" style="fill:none"/>
    <path data-name="Path 2946" d="M9 2a7 7 0 1 1-7 7 7 7 0 0 1 7-7zm0 1.4A5.6 5.6 0 1 0 14.6 9 5.6 5.6 0 0 0 9 3.4zm0 .7a4.881 4.881 0 0 1 2 .426L9.906 5.619a3.5 3.5 0 0 0-3.382 5.856l-.99.99-.109-.113A4.9 4.9 0 0 1 9 4.1zM13.474 7a4.9 4.9 0 0 1-1.009 5.465l-.99-.99a3.5 3.5 0 0 0 .906-3.382zm-1.505-1.96.991.99-2.607 2.608a1.4 1.4 0 1 1-.991-.991L11.97 5.04z" style="fill:#95989a"/>
</svg>
