<svg id="Group_4831" data-name="Group 4831" xmlns="http://www.w3.org/2000/svg" width="18" height="18" viewBox="0 0 18 18">
  <path id="Path_2908" data-name="Path 2908" d="M0,0H18V18H0Z" fill="none"/>
  <path id="Path_2909" data-name="Path 2909" d="M7.871,4.5,6.371,6H3.5v9h12V6H12.629l-1.5-1.5ZM7.25,3h4.5l1.5,1.5h3a.75.75,0,0,1,.75.75v10.5a.75.75,0,0,1-.75.75H2.75A.75.75,0,0,1,2,15.75V5.25a.75.75,0,0,1,.75-.75h3ZM9.5,14.25a4.125,4.125,0,1,1,4.125-4.125A4.125,4.125,0,0,1,9.5,14.25Zm0-1.5a2.625,2.625,0,1,0-2.625-2.625A2.625,2.625,0,0,0,9.5,12.75Z" transform="translate(-0.5 -0.75)" fill="#fff"/>
</svg>
