<svg id="Icons_Syringe_Fill_18px" data-name="Icons / Syringe / Fill / 18px" xmlns="http://www.w3.org/2000/svg" width="18" height="18" viewBox="0 0 18 18">
  <path id="Path_2918" data-name="Path 2918" d="M0,0H18V18H0Z" fill="none"/>
  <path id="Path_2919" data-name="Path 2919" d="M17.863,6.89,16.721,8.031,15.009,6.319,13.3,8.031l2.854,2.855-1.142,1.142-.571-.571L9.3,16.594H4.733L3.021,18.306,1.879,17.165l1.712-1.712V10.885L8.729,5.747l-.571-.571L9.3,4.035l2.855,2.854,1.712-1.712L12.155,3.464,13.3,2.322l4.567,4.567Zm-9.7,5.136L5.874,9.743,4.733,10.884l2.284,2.283Zm2.283-2.283L8.158,7.46,7.017,8.6,9.3,10.885l1.142-1.142Z" transform="translate(-0.871 -1.314)" fill="#376aed"/>
</svg>
