<svg id="Icons_Draft_Fill_18px" data-name="Icons / Draft / Fill / 18px" xmlns="http://www.w3.org/2000/svg" width="18" height="18" viewBox="0 0 18 18">
  <path id="Path_2820" data-name="Path 2820" d="M0,0H18V18H0Z" fill="none"/>
  <path id="Path_2821" data-name="Path 2821" d="M15.629,2a.747.747,0,0,1,.743.75V5.568l-6.685,6.75,0,3.178,3.154,0,3.535-3.569V16.25a.747.747,0,0,1-.743.75H3.743A.747.747,0,0,1,3,16.25V2.75A.747.747,0,0,1,3.743,2ZM16.95,7.106,18,8.167,12.222,14H11.17V12.939L16.95,7.106ZM9.686,9.5H5.971V11H9.686Zm2.229-3H5.971V8h5.943Z" transform="translate(-1)" fill="#376aed"/>
</svg>
