<svg data-name="Icons / Draft / Line / 18px" xmlns="http://www.w3.org/2000/svg" width="18" height="18">
    <path data-name="Path 2883" d="M0 0h18v18H0z" style="fill:transparent"/>
    <path data-name="Path 2884" d="M15.629 2a.747.747 0 0 1 .743.75v2.818l-1.486 1.5V3.5h-10.4v12h10.4v-2.068l1.486-1.5v4.318a.747.747 0 0 1-.743.75H3.743A.747.747 0 0 1 3 16.25V2.75A.747.747 0 0 1 3.743 2zm1.321 5.106L18 8.167 12.222 14H11.17v-1.061l5.78-5.833zM10.429 9.5V11H6.714V9.5zm2.229-3V8H6.714V6.5z" transform="translate(-1)" style="fill:#95989a"/>
</svg>
