<svg id="Group_4744" data-name="Group 4744" xmlns="http://www.w3.org/2000/svg" width="18" height="18" viewBox="0 0 18 18">
  <path id="Path_2879" data-name="Path 2879" d="M0,0H18V18H0Z" fill="none"/>
  <path id="Path_2880" data-name="Path 2880" d="M9.307,3a8.273,8.273,0,0,1,8.126,6.781,8.26,8.26,0,0,1-16.253,0A8.272,8.272,0,0,1,9.307,3Zm0,12.055A6.768,6.768,0,0,0,15.9,9.782a6.759,6.759,0,0,0-13.185,0,6.768,6.768,0,0,0,6.593,5.273Zm0-1.884a3.39,3.39,0,1,1,3.38-3.39A3.385,3.385,0,0,1,9.307,13.171Zm0-1.507A1.884,1.884,0,1,0,7.43,9.781,1.881,1.881,0,0,0,9.307,11.664Z" transform="translate(-0.307 -0.781)" fill="#95989a"/>
</svg>
