<svg data-name="Icons / Calendar / Line / 18px" xmlns="http://www.w3.org/2000/svg" width="18" height="18">
    <path data-name="Path 2859" d="M0 0h18v18H0z" style="fill:none"/>
    <path data-name="Path 2860" d="M13.268 2.5h3a.751.751 0 0 1 .751.751v12.022a.751.751 0 0 1-.751.751H2.751A.751.751 0 0 1 2 15.273V3.254a.751.751 0 0 1 .751-.754h3V1h1.5v1.5h4.507V1h1.5zm2.254 6.01H3.5v6.01h12.022zM11.766 4H7.259v1.5h-1.5V4H3.5v3h12.022V4h-2.254v1.5h-1.5zM5 10.015h1.5v1.5H5zm3.756 0h1.5v1.5h-1.5zm3.756 0h1.5v1.5h-1.5z" transform="translate(-.512 -.256)" style="fill:#95989a"/>
</svg>
