<svg id="Icons_Oil_Fill_18px" data-name="Icons / Oil / Fill / 18px" xmlns="http://www.w3.org/2000/svg" width="18" height="18" viewBox="0 0 18 18">
  <path id="Path_2920" data-name="Path 2920" d="M0,0H18V18H0Z" fill="none"/>
  <path id="Path_2921" data-name="Path 2921" d="M6.961,3.991H15.1a.744.744,0,0,1,.74.748V15.953a.744.744,0,0,1-.74.748H4.74A.744.744,0,0,1,4,15.953V8.476ZM10.661,1h3.7a.744.744,0,0,1,.74.748v1.5H9.921v-1.5A.744.744,0,0,1,10.661,1ZM5.48,9.224v5.233h1.48V9.224Z" transform="translate(-0.891 -0.21)" fill="#376aed"/>
</svg>
