<svg id="Icons_User_Line_18px" data-name="Icons / User / Line / 18px" xmlns="http://www.w3.org/2000/svg" width="18" height="18" viewBox="0 0 18 18">
  <path id="Path_2824" data-name="Path 2824" d="M0,0H18V18H0Z" fill="none"/>
  <path id="Path_2907" data-name="Path 2907" d="M16,16.75H14.5v-1.5A2.25,2.25,0,0,0,12.25,13H7.75A2.25,2.25,0,0,0,5.5,15.25v1.5H4v-1.5A3.75,3.75,0,0,1,7.75,11.5h4.5A3.75,3.75,0,0,1,16,15.25ZM10,10a4.5,4.5,0,1,1,4.5-4.5A4.5,4.5,0,0,1,10,10Zm0-1.5a3,3,0,1,0-3-3A3,3,0,0,0,10,8.5Z" transform="translate(-1 0.125)" fill="#333"/>
</svg>
