<svg id="Icons_Home_Line_18px" data-name="Icons / Home / Line /18px" xmlns="http://www.w3.org/2000/svg" width="18" height="18" viewBox="0 0 18 18">
  <path id="Path_2861" data-name="Path 2861" d="M0,0H18V18H0Z" fill="none"/>
  <path id="Path_2862" data-name="Path 2862" d="M10.5,14.773H15V8.03L9.75,3.961,4.5,8.03v6.743H9V10.288h1.5Zm6,.747a.749.749,0,0,1-.75.747h-12A.749.749,0,0,1,3,15.52V7.665a.746.746,0,0,1,.289-.59l6-4.65a.752.752,0,0,1,.921,0l6,4.65a.746.746,0,0,1,.29.59V15.52Z" transform="translate(-0.75 -0.267)" fill="#95989a"/>
</svg>
