<svg id="Icons_Motor_Line_18px" data-name="Icons / Motor / Line / 18px" xmlns="http://www.w3.org/2000/svg" width="18" height="18" viewBox="0 0 18 18">
  <path id="Path_2865" data-name="Path 2865" d="M0,0H18V18H0Z" fill="none"/>
  <path id="Path_2866" data-name="Path 2866" d="M3.242,10.611V9.679H1.747V8.195H6.5L8.622,6.711h2.609l-.815-2.226H8.473V3h2.989l.816,2.226H15.2V7.453h-2.1l1.088,2.97a3.351,3.351,0,1,1-1.483.291l-.924-2.519h-.708L9.885,12.551h0v0l-2.186.79a3.363,3.363,0,0,1-6.579,1.3,3.335,3.335,0,0,1,2.122-4.033Zm1.495-.17A3.366,3.366,0,0,1,7.188,11.95l1.462-.529.871-3.226H9.112L6.978,9.679H4.736v.762Zm-.374,5.175a1.855,1.855,0,1,0-1.868-1.855A1.862,1.862,0,0,0,4.363,15.616Zm9.715,0a1.855,1.855,0,1,0-1.868-1.855A1.862,1.862,0,0,0,14.077,15.616Z" transform="translate(-0.22 -0.66)" fill="#376aed"/>
</svg>
