<svg id="Icons_File_Fill_18px" data-name="Icons / File / Fill /18px" xmlns="http://www.w3.org/2000/svg" width="18" height="18" viewBox="0 0 18 18">
  <path id="Path_2893" data-name="Path 2893" d="M0,0H18V18H0Z" fill="none"/>
  <path id="Path_2894" data-name="Path 2894" d="M16.374,7.221v8.944a.744.744,0,0,1-.738.751H3.738A.739.739,0,0,1,3,16.176V2.74A.746.746,0,0,1,3.742,2h7.432V6.475a.744.744,0,0,0,.743.746Zm0-1.492H12.659V2Zm-9.659,0V7.221H8.944V5.729Zm0,2.983V10.2h5.944V8.712Zm0,2.983v1.492h5.944V11.7Z" transform="translate(-0.687 -0.458)" fill="#376aed"/>
</svg>
