<svg id="Group_4696" data-name="Group 4696" xmlns="http://www.w3.org/2000/svg" width="18" height="18" viewBox="0 0 18 18">
  <path id="Path_2873" data-name="Path 2873" d="M0,0H18V18H0Z" fill="none"/>
  <path id="Path_2874" data-name="Path 2874" d="M7.774,8.762a7.917,7.917,0,0,0,2.964,2.964L11.4,10.8a.75.75,0,0,1,.97-.222A8.567,8.567,0,0,0,15.809,11.6a.75.75,0,0,1,.691.748v3.346a.75.75,0,0,1-.674.746A11.632,11.632,0,0,1,3.062,3.674.75.75,0,0,1,3.808,3H7.154a.75.75,0,0,1,.748.691A8.566,8.566,0,0,0,8.925,7.128.75.75,0,0,1,8.7,8.1l-.929.663ZM5.883,8.269,7.308,7.251A10.058,10.058,0,0,1,6.485,4.5H4.508c0,.124-.007.25-.007.375A10.124,10.124,0,0,0,14.625,15c.125,0,.25,0,.375-.007V13.015a10.058,10.058,0,0,1-2.751-.823l-1.018,1.425a9.331,9.331,0,0,1-1.191-.562L10,13.03A9.417,9.417,0,0,1,6.47,9.5L6.445,9.46a9.332,9.332,0,0,1-.562-1.191Z" transform="translate(-0.75 -0.75)" fill="#333"/>
</svg>
