<svg data-name="Icons / Motor / Line / 18px" xmlns="http://www.w3.org/2000/svg" width="18" height="18">
    <path data-name="Path 2865" d="M0 0h18v18H0z" style="fill:none"/>
    <path data-name="Path 2866" d="M3.242 10.611v-.932H1.747V8.195H6.5l2.122-1.484h2.609l-.815-2.226H8.473V3h2.989l.816 2.226H15.2v2.227h-2.1l1.088 2.97a3.351 3.351 0 1 1-1.483.291l-.924-2.519h-.708l-1.188 4.356-2.186.79a3.363 3.363 0 0 1-6.579 1.3 3.335 3.335 0 0 1 2.122-4.033zm1.495-.17a3.366 3.366 0 0 1 2.451 1.509l1.462-.529.871-3.226h-.409L6.978 9.679H4.736v.762zm-.374 5.175a1.855 1.855 0 1 0-1.868-1.855 1.862 1.862 0 0 0 1.868 1.855zm9.715 0a1.855 1.855 0 1 0-1.868-1.855 1.862 1.862 0 0 0 1.867 1.855z" transform="translate(-.22 -.66)" style="fill:#95989a"/>
</svg>
