<svg xmlns="http://www.w3.org/2000/svg" width="22.001" height="19" viewBox="0 0 22.001 19">
  <path id="Path_250" data-name="Path 250" d="M8.365,10,11.2,8H17v2H11.856L9,12H2V10Zm.916,5.06,2.925-1.065.684,1.88L9.965,16.939a4.5,4.5,0,1,1-.684-1.88ZM5.5,20A2.5,2.5,0,1,0,3,17.5,2.5,2.5,0,0,0,5.5,20Zm13,2A4.5,4.5,0,1,1,23,17.5,4.5,4.5,0,0,1,18.5,22Zm0-2A2.5,2.5,0,1,0,16,17.5,2.5,2.5,0,0,0,18.5,20ZM4,11h6l2.6-1.733.28-1.046,1.932.518L12.89,15.87l-1.822-.888.118-.44L9,16,8,14H4ZM16.092,6H20V9H17.184l1.92,5.276-1.88.684L15.056,9H15V8.848L13.6,5H11V3h4Z" transform="translate(-0.999 -3)" fill="#376aed"/>
</svg>
