<?xml version="1.0" encoding="UTF-8"?>
<svg xmlns="http://www.w3.org/2000/svg" xmlns:xlink="http://www.w3.org/1999/xlink"  width="20px" height="20px" viewBox="0 0 24 24" version="1.1" >
<g id="surface1">
<path style=" stroke:none;fill-rule:nonzero;fill:#376aed;fill-opacity:1;" d="M 23.628906 3.328125 L 20.628906 0.328125 C 20.191406 -0.109375 19.476562 -0.109375 19.039062 0.328125 C 18.597656 0.769531 18.597656 1.480469 19.039062 1.921875 L 19.785156 2.625 L 18 4.410156 L 15.421875 1.828125 C 14.980469 1.390625 14.269531 1.390625 13.828125 1.828125 C 13.433594 2.226562 13.414062 2.835938 13.734375 3.277344 L 20.722656 10.265625 C 20.921875 10.410156 21.144531 10.5 21.375 10.5 C 21.664062 10.5 21.949219 10.390625 22.171875 10.171875 C 22.609375 9.730469 22.609375 9.019531 22.171875 8.578125 L 19.589844 6 L 21.375 4.214844 L 22.078125 4.921875 C 22.296875 5.140625 22.589844 5.25 22.875 5.25 C 23.160156 5.25 23.449219 5.140625 23.671875 4.921875 C 24.109375 4.480469 24.109375 3.769531 23.628906 3.328125 Z M 9.789062 7.222656 L 12.53125 9.96875 C 12.824219 10.261719 12.824219 10.734375 12.53125 11.027344 C 12.382812 11.175781 12.191406 11.25 12 11.25 C 11.808594 11.25 11.617188 11.175781 11.46875 11.03125 L 8.722656 8.289062 L 6.789062 10.222656 L 9.53125 12.96875 C 9.824219 13.261719 9.824219 13.734375 9.53125 14.027344 C 9.382812 14.175781 9.191406 14.25 9 14.25 C 8.808594 14.25 8.617188 14.175781 8.46875 14.03125 L 5.722656 11.289062 L 3.878906 13.128906 C 3.316406 13.691406 3 14.457031 3 15.253906 L 3 19.410156 L 0.328125 22.082031 C -0.109375 22.519531 -0.109375 23.230469 0.328125 23.671875 C 0.550781 23.890625 0.835938 24 1.125 24 C 1.414062 24 1.699219 23.890625 1.921875 23.671875 L 4.589844 21 L 8.75 21 C 9.542969 21 10.308594 20.683594 10.871094 20.121094 L 19.664062 11.328125 L 12.675781 4.339844 Z M 9.789062 7.222656 "/>
</g>
</svg>
