<svg xmlns="http://www.w3.org/2000/svg" xmlns:xlink="http://www.w3.org/1999/xlink" width="42" height="42" viewBox="0 0 42 42">
  <defs>
    <linearGradient id="linear-gradient" x1="0.026" y1="0.122" x2="0.974" y2="0.908" gradientUnits="objectBoundingBox">
      <stop offset="0" stop-color="#47afff"/>
      <stop offset="1" stop-color="#3359ff"/>
    </linearGradient>
  </defs>
  <g id="Group-5" transform="translate(1.087 1.327)">
    <path id="Oval" d="M19.662.271A19.245,19.245,0,0,1,33.345,5.984a19.491,19.491,0,0,1,5.691,13.768,19.067,19.067,0,0,1-5.656,13.6A19.39,19.39,0,1,1,19.662.271Z" transform="translate(-0.224 -0.205)" fill="#fff" stroke="rgba(0,102,178,0)" stroke-width="0.542" fill-rule="evenodd"/>
    <path id="Combined-Shape-Copy" d="M.121,14.179A16.1,16.1,0,0,1,18.457.134a18.354,18.354,0,0,1,9.788,4.044l1.2,3.865a.167.167,0,0,1-.013.112.139.139,0,0,1-.208.042h0L26.026,6.16c-.122-.059-.172.081-.272.152h0L24.615,7.347a.264.264,0,0,0-.028.253,29.875,29.875,0,0,1,1.851,2.62c.852,1.355,1.6,2.878,1.617,2.9.111.155.286.229.393.164h0l1.1-.794c.1-.065.021-.224-.06-.38h0l-1.3-2.571,2.265,1.467c.094.068.241,0,.321-.051h0l.461-.249a.3.3,0,0,0,.115-.28h0l-.405-2.97.1.151a11.788,11.788,0,0,1,1.31,3.851.5.5,0,0,1,.005.069v.021c0,.324-.207,1.3-1.959,2.334a9.917,9.917,0,0,1-3.424,1.308c-1.831.409-3.257.607-4.608.956a1.909,1.909,0,0,0-1.556,1.792,11.551,11.551,0,0,0,.361,3.5l.046.217.07.325.047.216.046.216.046.215a8.616,8.616,0,0,1,.254,3.838,6.853,6.853,0,0,1-1.965,3.065l.692,1.15a.982.982,0,0,1-.336,1.349h0L18.34,33.07a.986.986,0,0,1-1.351-.336l-.88-1.462-.02-.034a8.391,8.391,0,0,1-2.328.028c-7.548-.38-11.651-7.256-11.993-7.948A15.707,15.707,0,0,1,.121,14.179Z" transform="translate(6.103 1.416) rotate(9)" fill-rule="evenodd" fill="url(#linear-gradient)"/>
    <ellipse id="Oval-2" data-name="Oval" cx="1.578" cy="1.577" rx="1.578" ry="1.577" transform="translate(15.925 28.077)" fill="#fff" opacity="0.501"/>
    <rect id="Rectangle_5165" data-name="Rectangle 5165" width="42" height="42" transform="translate(-1.087 -1.327)" fill="none"/>
  </g>
</svg>
